<svg width="283" height="72" viewBox="0 0 283 72" fill="none" xmlns="http://www.w3.org/2000/svg">
<path d="M117.792 46.32C117.792 41.4987 119.307 37.5093 122.336 34.352C125.408 31.1947 129.269 29.616 133.92 29.616C138.571 29.616 142.411 31.1947 145.44 34.352C148.512 37.5093 150.048 41.4987 150.048 46.32C150.048 51.184 148.512 55.1733 145.44 58.288C142.411 61.4453 138.571 63.024 133.92 63.024C129.269 63.024 125.408 61.4453 122.336 58.288C119.307 55.1307 117.792 51.1413 117.792 46.32ZM123.68 46.32C123.68 49.6907 124.661 52.4213 126.624 54.512C128.587 56.6027 131.019 57.648 133.92 57.648C136.821 57.648 139.253 56.6027 141.216 54.512C143.179 52.4213 144.16 49.6907 144.16 46.32C144.16 42.992 143.179 40.2827 141.216 38.192C139.211 36.0587 136.779 34.992 133.92 34.992C131.061 34.992 128.629 36.0587 126.624 38.192C124.661 40.2827 123.68 42.992 123.68 46.32ZM185.247 52.4C185.247 53.936 185.887 55.216 187.167 56.24C188.49 57.264 190.026 57.776 191.775 57.776C194.25 57.776 196.447 56.8587 198.367 55.024C200.33 53.1893 201.311 51.0347 201.311 48.56C199.476 47.1093 196.916 46.384 193.631 46.384C191.242 46.384 189.236 46.96 187.615 48.112C186.036 49.264 185.247 50.6933 185.247 52.4ZM192.863 29.616C197.215 29.616 200.65 30.7893 203.167 33.136C205.684 35.44 206.943 38.6187 206.943 42.672V62H201.311V57.648H201.055C198.623 61.232 195.38 63.024 191.327 63.024C187.871 63.024 184.97 62 182.623 59.952C180.319 57.904 179.167 55.344 179.167 52.272C179.167 49.0293 180.383 46.448 182.815 44.528C185.29 42.608 188.575 41.648 192.671 41.648C196.17 41.648 199.05 42.288 201.311 43.568V42.224C201.311 40.176 200.5 38.448 198.879 37.04C197.258 35.5893 195.359 34.864 193.183 34.864C189.898 34.864 187.295 36.2507 185.375 39.024L180.191 35.76C183.05 31.664 187.274 29.616 192.863 29.616ZM230.16 63.024C227.856 63.024 225.744 62.5333 223.824 61.552C221.947 60.5707 220.496 59.2693 219.472 57.648H219.216V62H213.584V16.176H219.472V30.64L219.216 34.992H219.472C220.496 33.3707 221.947 32.0693 223.824 31.088C225.744 30.1067 227.856 29.616 230.16 29.616C234.299 29.616 237.797 31.2373 240.656 34.48C243.6 37.7653 245.072 41.712 245.072 46.32C245.072 50.9707 243.6 54.9173 240.656 58.16C237.797 61.4027 234.299 63.024 230.16 63.024ZM229.2 57.648C232.016 57.648 234.384 56.5813 236.304 54.448C238.224 52.3573 239.184 49.648 239.184 46.32C239.184 43.0347 238.224 40.3253 236.304 38.192C234.384 36.0587 232.016 34.992 229.2 34.992C226.341 34.992 223.952 36.0587 222.032 38.192C220.155 40.3253 219.216 43.0347 219.216 46.32C219.216 49.648 220.155 52.3787 222.032 54.512C223.952 56.6027 226.341 57.648 229.2 57.648ZM257.763 19.824C257.763 20.976 257.357 21.9573 256.547 22.768C255.736 23.5787 254.755 23.984 253.603 23.984C252.451 23.984 251.469 23.5787 250.659 22.768C249.848 21.9573 249.443 20.976 249.443 19.824C249.443 18.672 249.848 17.6907 250.659 16.88C251.469 16.0693 252.451 15.664 253.603 15.664C254.755 15.664 255.736 16.0693 256.547 16.88C257.357 17.6907 257.763 18.672 257.763 19.824ZM256.547 30.64V62H250.659V30.64H256.547ZM276.312 62.512C273.753 62.512 271.619 61.7227 269.913 60.144C268.249 58.5653 267.395 56.368 267.353 53.552V36.016H261.849V30.64H267.353V21.04H273.241V30.64H280.921V36.016H273.241V51.632C273.241 53.7227 273.646 55.152 274.457 55.92C275.267 56.6453 276.185 57.008 277.208 57.008C277.678 57.008 278.126 56.9653 278.553 56.88C279.022 56.752 279.449 56.6027 279.833 56.432L281.689 61.68C280.153 62.2347 278.361 62.512 276.312 62.512Z" fill="#3563D9"/>
<path d="M156.549 62V32.816C157.103 32.4747 158.127 32.0267 159.621 31.472C161.114 30.8747 162.863 30.3413 164.869 29.872C166.917 29.4027 169.007 29.168 171.141 29.168C172.207 29.168 173.082 29.2533 173.765 29.424C174.447 29.5947 175.023 29.7867 175.493 30V35.376C173.573 35.0773 171.482 34.992 169.221 35.12C166.959 35.248 164.975 35.4613 163.269 35.76V62H156.549Z" fill="#FDC604"/>
<path d="M97 33.375L108.586 36.2541L106.375 24" stroke="#3563D9" stroke-width="6" stroke-linecap="round" stroke-linejoin="round"/>
<path d="M100.584 56.5841C97.6996 59.4685 94.0246 61.4329 90.0237 62.2287C86.0229 63.0245 81.8759 62.6161 78.1072 61.055C74.3384 59.494 71.1172 56.8504 68.8509 53.4586C66.5846 50.0669 65.375 46.0792 65.375 42C65.375 37.9208 66.5846 33.9331 68.8509 30.5414C71.1172 27.1496 74.3384 24.5061 78.1072 22.945C81.8759 21.3839 86.0229 20.9755 90.0237 21.7713C94.0246 22.5671 97.6996 24.5315 100.584 27.4159L108.539 35.3709" stroke="#3563D9" stroke-width="6" stroke-linecap="round" stroke-linejoin="round"/>
<g clip-path="url(#clip0)">
<path d="M40.5075 51.8638C40.4906 50.9619 40.0913 49.4975 39.4969 49.0306C39.4384 48.9839 39.3694 48.9522 39.2959 48.9381C39.2224 48.924 39.1465 48.928 39.0749 48.9498C39.0033 48.9716 38.9381 49.0105 38.8848 49.0631C38.8316 49.1157 38.792 49.1805 38.7694 49.2519C38.5896 49.8125 38.3728 50.3605 38.1206 50.8925C37.4488 52.4679 36.4461 53.8804 35.1806 55.0344C33.6056 56.4913 31.7306 57.53 29.8988 58.2688C29.4413 58.4544 28.9894 58.6194 28.545 58.7675L28.5338 58.7713C28.2375 58.8706 27.945 58.9606 27.6581 59.045L27.6525 59.0469L27.24 59.165L27.2175 59.1706C26.94 59.2456 26.67 59.3169 26.4056 59.3806L26.3738 59.3881L26.0138 59.4725L25.9838 59.48C25.7306 59.5363 25.4888 59.5888 25.2525 59.6356L25.2056 59.645C24.8813 59.707 24.5563 59.7651 24.2306 59.8194L24.1781 59.8269L23.9231 59.8644L23.8913 59.8719C23.7164 59.8967 23.5414 59.9204 23.3663 59.9431L23.1038 59.975C22.7654 60.0166 22.4259 60.0478 22.0856 60.0688H22.0781C14.4094 60.8731 24.0244 62.5531 31.2563 61.2819L31.305 61.2725C31.7341 61.1949 32.1611 61.1061 32.5856 61.0063C32.6531 60.9875 32.7244 60.9725 32.7919 60.9556C33.6911 60.7388 34.5634 60.4225 35.3925 60.0125C39.8663 57.8469 40.2994 54.23 40.2994 54.23C40.4494 53.5438 40.5244 52.7638 40.5075 51.8638ZM21.2325 46.5538C21.1049 46.1892 20.9145 45.8497 20.67 45.5506C19.8338 44.2475 18.6713 43.0719 17.4938 42.0856C16.8727 41.5512 16.2197 41.0553 15.5381 40.6006C14.025 39.5563 12.8381 38.9506 12.8381 38.9506H12.8344C11.0344 38.0506 9.39188 38.9319 8.95875 40.985C8.71184 42.095 8.6866 43.2428 8.88449 44.3625C9.08237 45.4823 9.49949 46.5519 10.1119 47.51C10.9744 48.8938 12.3038 49.55 13.8956 49.6981C14.8894 49.7919 15.8888 49.8463 16.8863 49.9175C17.6981 49.9363 18.5081 49.9925 19.2975 49.7244C20.3381 49.3719 21.1406 48.7381 21.3188 47.6188C21.3775 47.2622 21.3486 46.8966 21.2344 46.5538H21.2325ZM27.5494 49.7319C28.6856 49.8819 29.82 50.0656 30.9656 50.1313C32.5031 50.2213 33.6656 49.7281 34.5281 48.8C35.6063 47.6375 36.1031 46.2856 36.0188 44.7688C35.9344 43.2425 34.5956 42.3406 32.7844 42.6556C31.1663 42.935 29.7319 43.565 28.2806 44.1463C26.9981 44.6581 25.7944 45.275 24.8531 46.1488C23.5275 47.3788 24.2794 49.0081 26.3944 49.52C26.7731 49.6119 27.1631 49.6625 27.5494 49.7319ZM0 40.4975C0.043125 39.7944 -0.061875 38.975 0.07125 38.1575C0.294375 36.785 1.02375 35.7856 2.2575 35.1613C2.56313 35.0075 2.74875 34.8481 2.82 34.4694C3.35625 31.5219 4.53938 28.8444 6.28875 26.4144C6.48938 26.1369 6.64875 25.9456 6.39188 25.5819C6.06375 25.1225 6.29813 24.7006 6.63938 24.3163C9.105 21.5525 12.075 19.505 15.6056 18.4156C24.03 15.8169 31.455 17.5944 37.7963 23.7444C38.3813 24.3125 39.1631 24.8844 38.415 25.8819C38.2913 26.0469 38.5125 26.1931 38.6081 26.3225C40.4168 28.7594 41.6333 31.584 42.1613 34.5725C42.2194 34.91 42.4275 35.015 42.6713 35.1369C44.1956 35.9094 44.9438 37.1844 44.9513 38.8588C44.9569 40.37 45.1069 41.8906 44.8538 43.3944C44.4919 45.5563 42.2906 47.0638 40.1606 46.6231C39.5138 46.4881 39.3431 45.9913 39.3469 45.3856C39.3581 42.9031 39.4069 40.4225 39.3469 37.9419C39.1875 31.2763 36.1781 26.255 30.3469 23.0506C20.595 17.6881 8.08313 23.6319 5.93438 34.565C5.56313 36.4663 5.62688 38.375 5.6475 40.2894C5.66625 42.0706 5.6475 43.8538 5.6025 45.635C5.5875 46.2613 5.22 46.6138 4.5525 46.6456C1.83375 46.7713 0.005625 45.0444 0 42.3256L0 40.4975Z" fill="#3834FB"/>
</g>
<defs>
<clipPath id="clip0">
<rect width="45" height="45" fill="white" transform="translate(0 17)"/>
</clipPath>
</defs>
</svg>
